<svg xmlns="http://www.w3.org/2000/svg" width="44" height="44" viewBox="0 0 44 44" fill="none">
<path d="M43 35.293C43 36.049 42.8317 36.826 42.4742 37.582C42.1167 38.338 41.654 39.052 41.0441 39.724C40.0135 40.858 38.8778 41.677 37.5949 42.202C36.333 42.727 34.966 43 33.4937 43C31.3485 43 29.0561 42.496 26.6375 41.467C24.2188 40.438 21.8002 39.052 19.4026 37.309C16.959 35.5242 14.653 33.5587 12.5043 31.429C10.3775 29.2912 8.41593 26.9957 6.63645 24.562C4.91187 22.168 3.52379 19.774 2.51427 17.401C1.50476 15.007 1 12.718 1 10.534C1 9.106 1.25238 7.741 1.75714 6.481C2.26189 5.2 3.06109 4.024 4.17576 2.974C5.52178 1.651 6.99399 1 8.55033 1C9.13921 1 9.72809 1.126 10.2539 1.378C10.8007 1.63 11.2844 2.008 11.663 2.554L16.5423 9.421C16.9209 9.946 17.1943 10.429 17.3836 10.891C17.5729 11.332 17.678 11.773 17.678 12.172C17.678 12.676 17.5308 13.18 17.2364 13.663C16.9629 14.146 16.5633 14.65 16.0586 15.154L14.4602 16.813C14.2288 17.044 14.1237 17.317 14.1237 17.653C14.1237 17.821 14.1447 17.968 14.1868 18.136C14.2499 18.304 14.313 18.43 14.355 18.556C14.7336 19.249 15.3856 20.152 16.311 21.244C17.2574 22.336 18.2669 23.449 19.3605 24.562C20.4962 25.675 21.5899 26.704 22.7046 27.649C23.7982 28.573 24.7026 29.203 25.4176 29.581C25.5228 29.623 25.649 29.686 25.7962 29.749C25.9644 29.812 26.1327 29.833 26.322 29.833C26.6795 29.833 26.9529 29.707 27.1843 29.476L28.7827 27.901C29.3085 27.376 29.8132 26.977 30.2969 26.725C30.7807 26.431 31.2644 26.284 31.7902 26.284C32.1898 26.284 32.6104 26.368 33.0731 26.557C33.5358 26.746 34.0195 27.019 34.5453 27.376L41.5068 32.311C42.0536 32.689 42.4322 33.13 42.6635 33.655C42.8738 34.18 43 34.705 43 35.293Z" stroke="white" stroke-width="1.5" stroke-miterlimit="10"/>
</svg>